<?xml version="1.0" encoding="UTF-8" standalone="no"?>
<!DOCTYPE svg PUBLIC "-//W3C//DTD SVG 1.1//EN"
 "http://www.w3.org/Graphics/SVG/1.1/DTD/svg11.dtd">
<!-- Generated by graphviz version 2.40.1 (20161225.0304)
 -->
<!-- Title: state transitions Pages: 1 -->
<svg width="287pt" height="352pt"
 viewBox="0.00 0.00 287.00 352.00" xmlns="http://www.w3.org/2000/svg" xmlns:xlink="http://www.w3.org/1999/xlink">
<g id="graph0" class="graph" transform="scale(1 1) rotate(0) translate(4 348)">
<title>state transitions</title>
<polygon fill="#ffffff" stroke="transparent" points="-4,4 -4,-348 283,-348 283,4 -4,4"/>
<g id="clust1" class="cluster state regular">
<title>cluster_d5mStates</title>
<path fill="none" stroke="#000000" stroke-width="2" d="M20,-8C20,-8 259,-8 259,-8 265,-8 271,-14 271,-20 271,-20 271,-324 271,-324 271,-330 265,-336 259,-336 259,-336 20,-336 20,-336 14,-336 8,-330 8,-324 8,-324 8,-20 8,-20 8,-14 14,-8 20,-8"/>
<text text-anchor="start" x="111.3248" y="-317.2" font-family="Helvetica,sans-Serif" font-size="12.00" fill="#000000">d5mStates</text>
</g>
<!-- d5mStates -->
<!-- sofSt -->
<g id="node2" class="node state regular">
<title>sofSt</title>
<polygon fill="#ffffff" fill-opacity="0.003922" stroke="transparent" stroke-width="2" points="143,-298 87,-298 87,-262 143,-262 143,-298"/>
<text text-anchor="start" x="101.3284" y="-276.2" font-family="Helvetica,sans-Serif" font-size="12.00" fill="#000000">sofSt</text>
<path fill="none" stroke="#000000" stroke-width="2" d="M99.3333,-263C99.3333,-263 130.6667,-263 130.6667,-263 136.3333,-263 142,-268.6667 142,-274.3333 142,-274.3333 142,-285.6667 142,-285.6667 142,-291.3333 136.3333,-297 130.6667,-297 130.6667,-297 99.3333,-297 99.3333,-297 93.6667,-297 88,-291.3333 88,-285.6667 88,-285.6667 88,-274.3333 88,-274.3333 88,-268.6667 93.6667,-263 99.3333,-263"/>
</g>
<!-- rLnSt -->
<g id="node3" class="node state regular">
<title>rLnSt</title>
<polygon fill="#ffffff" fill-opacity="0.003922" stroke="transparent" stroke-width="2" points="110,-216 54,-216 54,-180 110,-180 110,-216"/>
<text text-anchor="start" x="67.663" y="-194.2" font-family="Helvetica,sans-Serif" font-size="12.00" fill="#000000">rLnSt</text>
<path fill="none" stroke="#000000" stroke-width="2" d="M66.3333,-181C66.3333,-181 97.6667,-181 97.6667,-181 103.3333,-181 109,-186.6667 109,-192.3333 109,-192.3333 109,-203.6667 109,-203.6667 109,-209.3333 103.3333,-215 97.6667,-215 97.6667,-215 66.3333,-215 66.3333,-215 60.6667,-215 55,-209.3333 55,-203.6667 55,-203.6667 55,-192.3333 55,-192.3333 55,-186.6667 60.6667,-181 66.3333,-181"/>
</g>
<!-- sofSt&#45;&gt;rLnSt -->
<g id="edge1" class="edge transition">
<title>sofSt&#45;&gt;rLnSt</title>
<path fill="none" stroke="#000000" d="M107.6762,-261.8015C103.4038,-251.1853 97.9279,-237.5784 93.1313,-225.6596"/>
<polygon fill="#000000" stroke="#000000" points="96.2837,-224.1178 89.3033,-216.1476 89.7898,-226.7313 96.2837,-224.1178"/>
<text text-anchor="start" x="100" y="-236" font-family="Helvetica,sans-Serif" font-size="10.00" fill="#000000">(iFvalSy2 = hi) and (pEol = hi) &#160;&#160;</text>
</g>
<!-- rLnSt&#45;&gt;rLnSt -->
<g id="edge3" class="edge transition">
<title>rLnSt&#45;&gt;rLnSt</title>
<path fill="none" stroke="#000000" d="M110.0183,-202.8247C121.888,-203.1883 132,-201.5801 132,-198 132,-195.5387 127.2205,-194.0094 120.3762,-193.4121"/>
<polygon fill="#000000" stroke="#000000" points="120.0957,-189.9049 110.0183,-193.1753 119.9356,-196.903 120.0957,-189.9049"/>
<text text-anchor="start" x="132" y="-195" font-family="Helvetica,sans-Serif" font-size="10.00" fill="#000000">not (cordx = imgWidth) &#160;&#160;</text>
</g>
<!-- eolSt -->
<g id="node4" class="node state regular">
<title>eolSt</title>
<polygon fill="#ffffff" fill-opacity="0.003922" stroke="transparent" stroke-width="2" points="130,-134 74,-134 74,-98 130,-98 130,-134"/>
<text text-anchor="start" x="88.329" y="-112.2" font-family="Helvetica,sans-Serif" font-size="12.00" fill="#000000">eolSt</text>
<path fill="none" stroke="#000000" stroke-width="2" d="M86.3333,-99C86.3333,-99 117.6667,-99 117.6667,-99 123.3333,-99 129,-104.6667 129,-110.3333 129,-110.3333 129,-121.6667 129,-121.6667 129,-127.3333 123.3333,-133 117.6667,-133 117.6667,-133 86.3333,-133 86.3333,-133 80.6667,-133 75,-127.3333 75,-121.6667 75,-121.6667 75,-110.3333 75,-110.3333 75,-104.6667 80.6667,-99 86.3333,-99"/>
</g>
<!-- rLnSt&#45;&gt;eolSt -->
<g id="edge2" class="edge transition">
<title>rLnSt&#45;&gt;eolSt</title>
<path fill="none" stroke="#000000" d="M62.315,-179.9484C55.3271,-171.3088 50.2735,-160.745 55.157,-151 57.7154,-145.8948 61.4111,-141.3433 65.6207,-137.3486"/>
<polygon fill="#000000" stroke="#000000" points="68.1254,-139.82 73.6185,-130.7603 63.6747,-134.417 68.1254,-139.82"/>
<text text-anchor="start" x="55" y="-154" font-family="Helvetica,sans-Serif" font-size="10.00" fill="#000000">cordx = imgWidth &#160;&#160;</text>
</g>
<!-- eolSt&#45;&gt;rLnSt -->
<g id="edge5" class="edge transition">
<title>eolSt&#45;&gt;rLnSt</title>
<path fill="none" stroke="#000000" d="M130.0941,-132.9073C140.4253,-141.3778 148.2438,-152.1293 142,-163 136.8195,-172.0194 128.3192,-178.9341 119.324,-184.1386"/>
<polygon fill="#000000" stroke="#000000" points="117.566,-181.1067 110.2684,-188.7876 120.7631,-187.334 117.566,-181.1067"/>
<text text-anchor="start" x="144" y="-154" font-family="Helvetica,sans-Serif" font-size="10.00" fill="#000000">pEol = hi &#160;&#160;</text>
</g>
<!-- eolSt&#45;&gt;eolSt -->
<g id="edge6" class="edge transition">
<title>eolSt&#45;&gt;eolSt</title>
<path fill="none" stroke="#000000" d="M130.0183,-120.8247C141.888,-121.1883 152,-119.5801 152,-116 152,-113.5387 147.2205,-112.0094 140.3762,-111.4121"/>
<polygon fill="#000000" stroke="#000000" points="140.0957,-107.9049 130.0183,-111.1753 139.9356,-114.903 140.0957,-107.9049"/>
<text text-anchor="start" x="152" y="-119" font-family="Helvetica,sans-Serif" font-size="10.00" fill="#000000">not (iFvalSy2 = lo) &#160;&#160;</text>
<text text-anchor="start" x="152" y="-107" font-family="Helvetica,sans-Serif" font-size="10.00" fill="#000000">not (pEol = hi) &#160;&#160;</text>
</g>
<!-- eofSt -->
<g id="node5" class="node state regular">
<title>eofSt</title>
<polygon fill="#ffffff" fill-opacity="0.003922" stroke="transparent" stroke-width="2" points="197,-52 141,-52 141,-16 197,-16 197,-52"/>
<text text-anchor="start" x="154.993" y="-30.2" font-family="Helvetica,sans-Serif" font-size="12.00" fill="#000000">eofSt</text>
<path fill="none" stroke="#000000" stroke-width="2" d="M153.3333,-17C153.3333,-17 184.6667,-17 184.6667,-17 190.3333,-17 196,-22.6667 196,-28.3333 196,-28.3333 196,-39.6667 196,-39.6667 196,-45.3333 190.3333,-51 184.6667,-51 184.6667,-51 153.3333,-51 153.3333,-51 147.6667,-51 142,-45.3333 142,-39.6667 142,-39.6667 142,-28.3333 142,-28.3333 142,-22.6667 147.6667,-17 153.3333,-17"/>
</g>
<!-- eolSt&#45;&gt;eofSt -->
<g id="edge4" class="edge transition">
<title>eolSt&#45;&gt;eofSt</title>
<path fill="none" stroke="#000000" d="M116.8695,-97.8015C125.8907,-86.7606 137.5549,-72.4851 147.5618,-60.2378"/>
<polygon fill="#000000" stroke="#000000" points="150.5552,-62.1059 154.1721,-52.1476 145.1345,-57.6768 150.5552,-62.1059"/>
<text text-anchor="start" x="139" y="-72" font-family="Helvetica,sans-Serif" font-size="10.00" fill="#000000">iFvalSy2 = lo &#160;&#160;</text>
</g>
<!-- eofSt&#45;&gt;sofSt -->
<g id="edge7" class="edge transition">
<title>eofSt&#45;&gt;sofSt</title>
<path fill="none" stroke="#000000" d="M197.2941,-40.9851C224.0074,-48.4307 260,-61.0509 260,-75 260,-239 260,-239 260,-239 260,-250.1105 196.1476,-264.53 153.1874,-272.9742"/>
<polygon fill="#000000" stroke="#000000" points="152.4557,-269.5508 143.3017,-274.8851 153.7842,-276.4235 152.4557,-269.5508"/>
<text text-anchor="middle" x="261.3895" y="-154" font-family="Helvetica,sans-Serif" font-size="10.00" fill="#000000"> </text>
</g>
</g>
</svg>
