<?xml version="1.0" encoding="UTF-8" standalone="no"?>
<!DOCTYPE svg PUBLIC "-//W3C//DTD SVG 1.1//EN"
 "http://www.w3.org/Graphics/SVG/1.1/DTD/svg11.dtd">
<!-- Generated by graphviz version 2.40.1 (20161225.0304)
 -->
<!-- Title: state transitions Pages: 1 -->
<svg width="294pt" height="516pt"
 viewBox="0.00 0.00 294.00 516.00" xmlns="http://www.w3.org/2000/svg" xmlns:xlink="http://www.w3.org/1999/xlink">
<g id="graph0" class="graph" transform="scale(1 1) rotate(0) translate(4 512)">
<title>state transitions</title>
<polygon fill="#ffffff" stroke="transparent" points="-4,4 -4,-512 290,-512 290,4 -4,4"/>
<g id="clust1" class="cluster state regular">
<title>cluster_fifoControlState</title>
<path fill="none" stroke="#000000" stroke-width="2" d="M20,-8C20,-8 266,-8 266,-8 272,-8 278,-14 278,-20 278,-20 278,-488 278,-488 278,-494 272,-500 266,-500 266,-500 20,-500 20,-500 14,-500 8,-494 8,-488 8,-488 8,-20 8,-20 8,-14 14,-8 20,-8"/>
<text text-anchor="start" x="101.6576" y="-481.2" font-family="Helvetica,sans-Serif" font-size="12.00" fill="#000000">fifoControlState</text>
</g>
<!-- fifoControlState -->
<!-- idle -->
<g id="node2" class="node state regular">
<title>idle</title>
<polygon fill="#ffffff" fill-opacity="0.003922" stroke="transparent" stroke-width="2" points="136,-462 80,-462 80,-426 136,-426 136,-462"/>
<text text-anchor="start" x="98.6664" y="-440.2" font-family="Helvetica,sans-Serif" font-size="12.00" fill="#000000">idle</text>
<path fill="none" stroke="#000000" stroke-width="2" d="M92.3333,-427C92.3333,-427 123.6667,-427 123.6667,-427 129.3333,-427 135,-432.6667 135,-438.3333 135,-438.3333 135,-449.6667 135,-449.6667 135,-455.3333 129.3333,-461 123.6667,-461 123.6667,-461 92.3333,-461 92.3333,-461 86.6667,-461 81,-455.3333 81,-449.6667 81,-449.6667 81,-438.3333 81,-438.3333 81,-432.6667 86.6667,-427 92.3333,-427"/>
</g>
<!-- waitForNewFrame -->
<g id="node3" class="node state regular">
<title>waitForNewFrame</title>
<polygon fill="#ffffff" fill-opacity="0.003922" stroke="transparent" stroke-width="2" points="135.5,-380 16.5,-380 16.5,-344 135.5,-344 135.5,-380"/>
<text text-anchor="start" x="27.507" y="-358.2" font-family="Helvetica,sans-Serif" font-size="12.00" fill="#000000">waitForNewFrame</text>
<path fill="none" stroke="#000000" stroke-width="2" d="M28.8333,-345C28.8333,-345 123.1667,-345 123.1667,-345 128.8333,-345 134.5,-350.6667 134.5,-356.3333 134.5,-356.3333 134.5,-367.6667 134.5,-367.6667 134.5,-373.3333 128.8333,-379 123.1667,-379 123.1667,-379 28.8333,-379 28.8333,-379 23.1667,-379 17.5,-373.3333 17.5,-367.6667 17.5,-367.6667 17.5,-356.3333 17.5,-356.3333 17.5,-350.6667 23.1667,-345 28.8333,-345"/>
</g>
<!-- idle&#45;&gt;waitForNewFrame -->
<g id="edge1" class="edge transition">
<title>idle&#45;&gt;waitForNewFrame</title>
<path fill="none" stroke="#000000" d="M79.9591,-432.2991C70.3051,-426.7492 60.5677,-419.0824 55.152,-409 51.8032,-402.7655 52.5281,-395.8848 55.1247,-389.3561"/>
<polygon fill="#000000" stroke="#000000" points="58.4101,-390.632 60.0118,-380.1589 52.2286,-387.3473 58.4101,-390.632"/>
<text text-anchor="start" x="55" y="-400" font-family="Helvetica,sans-Serif" font-size="10.00" fill="#000000">iRoi.cpuWgridLock = hi &#160;&#160;</text>
</g>
<!-- gridEnCheck -->
<g id="node4" class="node state regular">
<title>gridEnCheck</title>
<polygon fill="#ffffff" fill-opacity="0.003922" stroke="transparent" stroke-width="2" points="107,-298 17,-298 17,-262 107,-262 107,-298"/>
<text text-anchor="start" x="27.6614" y="-276.2" font-family="Helvetica,sans-Serif" font-size="12.00" fill="#000000">gridEnCheck</text>
<path fill="none" stroke="#000000" stroke-width="2" d="M29.3333,-263C29.3333,-263 94.6667,-263 94.6667,-263 100.3333,-263 106,-268.6667 106,-274.3333 106,-274.3333 106,-285.6667 106,-285.6667 106,-291.3333 100.3333,-297 94.6667,-297 94.6667,-297 29.3333,-297 29.3333,-297 23.6667,-297 18,-291.3333 18,-285.6667 18,-285.6667 18,-274.3333 18,-274.3333 18,-268.6667 23.6667,-263 29.3333,-263"/>
</g>
<!-- waitForNewFrame&#45;&gt;gridEnCheck -->
<g id="edge2" class="edge transition">
<title>waitForNewFrame&#45;&gt;gridEnCheck</title>
<path fill="none" stroke="#000000" d="M72.8929,-343.8015C71.0985,-333.2915 68.8037,-319.8503 66.7835,-308.0177"/>
<polygon fill="#000000" stroke="#000000" points="70.2315,-307.4159 65.0984,-298.1476 63.3313,-308.594 70.2315,-307.4159"/>
<text text-anchor="start" x="69" y="-318" font-family="Helvetica,sans-Serif" font-size="10.00" fill="#000000">endOfFrame = hi &#160;&#160;</text>
</g>
<!-- lockReady -->
<g id="node5" class="node state regular">
<title>lockReady</title>
<polygon fill="#ffffff" fill-opacity="0.003922" stroke="transparent" stroke-width="2" points="97,-216 19,-216 19,-180 97,-180 97,-216"/>
<text text-anchor="start" x="29.9956" y="-194.2" font-family="Helvetica,sans-Serif" font-size="12.00" fill="#000000">lockReady</text>
<path fill="none" stroke="#000000" stroke-width="2" d="M31.3333,-181C31.3333,-181 84.6667,-181 84.6667,-181 90.3333,-181 96,-186.6667 96,-192.3333 96,-192.3333 96,-203.6667 96,-203.6667 96,-209.3333 90.3333,-215 84.6667,-215 84.6667,-215 31.3333,-215 31.3333,-215 25.6667,-215 20,-209.3333 20,-203.6667 20,-203.6667 20,-192.3333 20,-192.3333 20,-186.6667 25.6667,-181 31.3333,-181"/>
</g>
<!-- gridEnCheck&#45;&gt;lockReady -->
<g id="edge3" class="edge transition">
<title>gridEnCheck&#45;&gt;lockReady</title>
<path fill="none" stroke="#000000" d="M57.9059,-261.9264C56.861,-256.5128 55.8866,-250.5417 55.366,-245 54.8119,-239.1009 54.7829,-232.7735 55.026,-226.7335"/>
<polygon fill="#000000" stroke="#000000" points="58.5463,-226.5327 55.7029,-216.3266 51.5611,-226.0783 58.5463,-226.5327"/>
<text text-anchor="start" x="55" y="-236" font-family="Helvetica,sans-Serif" font-size="10.00" fill="#000000">GlEnable = lo &#160;&#160;</text>
</g>
<!-- fifoFullStatus -->
<g id="node6" class="node state regular">
<title>fifoFullStatus</title>
<polygon fill="#ffffff" fill-opacity="0.003922" stroke="transparent" stroke-width="2" points="109.5,-134 18.5,-134 18.5,-98 109.5,-98 109.5,-134"/>
<text text-anchor="start" x="29.8278" y="-112.2" font-family="Helvetica,sans-Serif" font-size="12.00" fill="#000000">fifoFullStatus</text>
<path fill="none" stroke="#000000" stroke-width="2" d="M30.8333,-99C30.8333,-99 97.1667,-99 97.1667,-99 102.8333,-99 108.5,-104.6667 108.5,-110.3333 108.5,-110.3333 108.5,-121.6667 108.5,-121.6667 108.5,-127.3333 102.8333,-133 97.1667,-133 97.1667,-133 30.8333,-133 30.8333,-133 25.1667,-133 19.5,-127.3333 19.5,-121.6667 19.5,-121.6667 19.5,-110.3333 19.5,-110.3333 19.5,-104.6667 25.1667,-99 30.8333,-99"/>
</g>
<!-- lockReady&#45;&gt;fifoFullStatus -->
<g id="edge4" class="edge transition">
<title>lockReady&#45;&gt;fifoFullStatus</title>
<path fill="none" stroke="#000000" d="M59.3316,-179.8015C60.0929,-169.3976 61.0643,-156.1215 61.9237,-144.3768"/>
<polygon fill="#000000" stroke="#000000" points="65.4329,-144.3764 62.6721,-134.1476 58.4516,-143.8655 65.4329,-144.3764"/>
<text text-anchor="start" x="61" y="-154" font-family="Helvetica,sans-Serif" font-size="10.00" fill="#000000">wrDone = hi &#160;&#160;</text>
</g>
<!-- fifoEmptyStatus -->
<g id="node7" class="node state regular">
<title>fifoEmptyStatus</title>
<polygon fill="#ffffff" fill-opacity="0.003922" stroke="transparent" stroke-width="2" points="163,-52 57,-52 57,-16 163,-16 163,-52"/>
<text text-anchor="start" x="67.9898" y="-30.2" font-family="Helvetica,sans-Serif" font-size="12.00" fill="#000000">fifoEmptyStatus</text>
<path fill="none" stroke="#000000" stroke-width="2" d="M69.3333,-17C69.3333,-17 150.6667,-17 150.6667,-17 156.3333,-17 162,-22.6667 162,-28.3333 162,-28.3333 162,-39.6667 162,-39.6667 162,-45.3333 156.3333,-51 150.6667,-51 150.6667,-51 69.3333,-51 69.3333,-51 63.6667,-51 58,-45.3333 58,-39.6667 58,-39.6667 58,-28.3333 58,-28.3333 58,-22.6667 63.6667,-17 69.3333,-17"/>
</g>
<!-- fifoFullStatus&#45;&gt;fifoEmptyStatus -->
<g id="edge5" class="edge transition">
<title>fifoFullStatus&#45;&gt;fifoEmptyStatus</title>
<path fill="none" stroke="#000000" d="M71.0022,-97.7097C74.6652,-88.8275 79.4727,-78.1286 84.704,-69 86.3442,-66.1379 88.1679,-63.2256 90.0634,-60.3651"/>
<polygon fill="#000000" stroke="#000000" points="93.017,-62.2482 95.8545,-52.0404 87.2707,-58.2507 93.017,-62.2482"/>
<text text-anchor="start" x="84" y="-72" font-family="Helvetica,sans-Serif" font-size="10.00" fill="#000000">rdDone = hi &#160;&#160;</text>
</g>
<!-- fifoEmptyStatus&#45;&gt;idle -->
<g id="edge6" class="edge transition">
<title>fifoEmptyStatus&#45;&gt;idle</title>
<path fill="none" stroke="#000000" d="M139.7966,-52.3515C146.1553,-58.5285 151,-66.1415 151,-75 151,-224.5 151,-224.5 151,-224.5 151,-306.8078 207.7319,-337.4774 167,-409 162.0133,-417.7564 153.878,-424.5479 145.2202,-429.7168"/>
<polygon fill="#000000" stroke="#000000" points="143.3222,-426.7612 136.1187,-434.5304 146.5949,-432.9491 143.3222,-426.7612"/>
<text text-anchor="start" x="152" y="-236" font-family="Helvetica,sans-Serif" font-size="10.00" fill="#000000">iRoi.cpuAckGoAgain = hi &#160;&#160;</text>
</g>
</g>
</svg>
