<?xml version="1.0" encoding="UTF-8" standalone="no"?>
<!DOCTYPE svg PUBLIC "-//W3C//DTD SVG 1.1//EN"
 "http://www.w3.org/Graphics/SVG/1.1/DTD/svg11.dtd">
<!-- Generated by graphviz version 2.40.1 (20161225.0304)
 -->
<!-- Title: state transitions Pages: 1 -->
<svg width="419pt" height="352pt"
 viewBox="0.00 0.00 419.00 352.00" xmlns="http://www.w3.org/2000/svg" xmlns:xlink="http://www.w3.org/1999/xlink">
<g id="graph0" class="graph" transform="scale(1 1) rotate(0) translate(4 348)">
<title>state transitions</title>
<polygon fill="#ffffff" stroke="transparent" points="-4,4 -4,-348 415,-348 415,4 -4,4"/>
<g id="clust1" class="cluster state regular">
<title>cluster_VIDEO_STATES</title>
<path fill="none" stroke="#000000" stroke-width="2" d="M20,-8C20,-8 391,-8 391,-8 397,-8 403,-14 403,-20 403,-20 403,-324 403,-324 403,-330 397,-336 391,-336 391,-336 20,-336 20,-336 14,-336 8,-330 8,-324 8,-324 8,-20 8,-20 8,-14 14,-8 20,-8"/>
<text text-anchor="start" x="160.1592" y="-317.2" font-family="Helvetica,sans-Serif" font-size="12.00" fill="#000000">VIDEO_STATES</text>
</g>
<!-- VIDEO_STATES -->
<!-- VIDEO_SET_RESET -->
<g id="node2" class="node state regular">
<title>VIDEO_SET_RESET</title>
<polygon fill="#ffffff" fill-opacity="0.003922" stroke="transparent" stroke-width="2" points="190,-298 54,-298 54,-262 190,-262 190,-298"/>
<text text-anchor="start" x="64.991" y="-276.2" font-family="Helvetica,sans-Serif" font-size="12.00" fill="#000000">VIDEO_SET_RESET</text>
<path fill="none" stroke="#000000" stroke-width="2" d="M66.3333,-263C66.3333,-263 177.6667,-263 177.6667,-263 183.3333,-263 189,-268.6667 189,-274.3333 189,-274.3333 189,-285.6667 189,-285.6667 189,-291.3333 183.3333,-297 177.6667,-297 177.6667,-297 66.3333,-297 66.3333,-297 60.6667,-297 55,-291.3333 55,-285.6667 55,-285.6667 55,-274.3333 55,-274.3333 55,-268.6667 60.6667,-263 66.3333,-263"/>
</g>
<!-- VIDEO_SET_RESET&#45;&gt;VIDEO_SET_RESET -->
<g id="edge2" class="edge transition">
<title>VIDEO_SET_RESET&#45;&gt;VIDEO_SET_RESET</title>
<path fill="none" stroke="#000000" d="M190.2858,-284.6248C203.0269,-284.0553 212,-282.5137 212,-280 212,-278.2326 207.5638,-276.9457 200.5009,-276.1395"/>
<polygon fill="#000000" stroke="#000000" points="200.5191,-272.6311 190.2858,-275.3752 199.9968,-279.6116 200.5191,-272.6311"/>
<text text-anchor="start" x="212" y="-277" font-family="Helvetica,sans-Serif" font-size="10.00" fill="#000000">not (iStreamData.sof = &#39;1&#39;) &#160;&#160;</text>
</g>
<!-- VIDEO_SOF_OFF -->
<g id="node3" class="node state regular">
<title>VIDEO_SOF_OFF</title>
<polygon fill="#ffffff" fill-opacity="0.003922" stroke="transparent" stroke-width="2" points="182.5,-216 61.5,-216 61.5,-180 182.5,-180 182.5,-216"/>
<text text-anchor="start" x="72.8278" y="-194.2" font-family="Helvetica,sans-Serif" font-size="12.00" fill="#000000">VIDEO_SOF_OFF</text>
<path fill="none" stroke="#000000" stroke-width="2" d="M73.8333,-181C73.8333,-181 170.1667,-181 170.1667,-181 175.8333,-181 181.5,-186.6667 181.5,-192.3333 181.5,-192.3333 181.5,-203.6667 181.5,-203.6667 181.5,-209.3333 175.8333,-215 170.1667,-215 170.1667,-215 73.8333,-215 73.8333,-215 68.1667,-215 62.5,-209.3333 62.5,-203.6667 62.5,-203.6667 62.5,-192.3333 62.5,-192.3333 62.5,-186.6667 68.1667,-181 73.8333,-181"/>
</g>
<!-- VIDEO_SET_RESET&#45;&gt;VIDEO_SOF_OFF -->
<g id="edge1" class="edge transition">
<title>VIDEO_SET_RESET&#45;&gt;VIDEO_SOF_OFF</title>
<path fill="none" stroke="#000000" d="M122,-261.8015C122,-251.3976 122,-238.1215 122,-226.3768"/>
<polygon fill="#000000" stroke="#000000" points="125.5001,-226.1476 122,-216.1476 118.5001,-226.1476 125.5001,-226.1476"/>
<text text-anchor="start" x="122" y="-236" font-family="Helvetica,sans-Serif" font-size="10.00" fill="#000000">iStreamData.sof = &#39;1&#39; &#160;&#160;</text>
</g>
<!-- VIDEO_SOF_OFF&#45;&gt;VIDEO_SOF_OFF -->
<g id="edge4" class="edge transition">
<title>VIDEO_SOF_OFF&#45;&gt;VIDEO_SOF_OFF</title>
<path fill="none" stroke="#000000" d="M182.7999,-202.7036C195.4229,-202.2085 204.5,-200.6406 204.5,-198 204.5,-196.1433 200.0124,-194.817 192.96,-194.021"/>
<polygon fill="#000000" stroke="#000000" points="193.0236,-190.5167 182.7999,-193.2964 192.5256,-197.499 193.0236,-190.5167"/>
<text text-anchor="start" x="204.5" y="-195" font-family="Helvetica,sans-Serif" font-size="10.00" fill="#000000">not (iStreamData.ycbcr.valid = hi) &#160;&#160;</text>
</g>
<!-- VIDEO_SOF_ON -->
<g id="node4" class="node state regular">
<title>VIDEO_SOF_ON</title>
<polygon fill="#ffffff" fill-opacity="0.003922" stroke="transparent" stroke-width="2" points="140.5,-134 25.5,-134 25.5,-98 140.5,-98 140.5,-134"/>
<text text-anchor="start" x="36.8272" y="-112.2" font-family="Helvetica,sans-Serif" font-size="12.00" fill="#000000">VIDEO_SOF_ON</text>
<path fill="none" stroke="#000000" stroke-width="2" d="M37.8333,-99C37.8333,-99 128.1667,-99 128.1667,-99 133.8333,-99 139.5,-104.6667 139.5,-110.3333 139.5,-110.3333 139.5,-121.6667 139.5,-121.6667 139.5,-127.3333 133.8333,-133 128.1667,-133 128.1667,-133 37.8333,-133 37.8333,-133 32.1667,-133 26.5,-127.3333 26.5,-121.6667 26.5,-121.6667 26.5,-110.3333 26.5,-110.3333 26.5,-104.6667 32.1667,-99 37.8333,-99"/>
</g>
<!-- VIDEO_SOF_OFF&#45;&gt;VIDEO_SOF_ON -->
<g id="edge3" class="edge transition">
<title>VIDEO_SOF_OFF&#45;&gt;VIDEO_SOF_ON</title>
<path fill="none" stroke="#000000" d="M113.3446,-179.8015C108.245,-169.0791 101.6943,-155.306 95.9854,-143.3026"/>
<polygon fill="#000000" stroke="#000000" points="99.087,-141.6749 91.6312,-134.1476 92.7656,-144.6815 99.087,-141.6749"/>
<text text-anchor="start" x="105" y="-154" font-family="Helvetica,sans-Serif" font-size="10.00" fill="#000000">iStreamData.ycbcr.valid = hi &#160;&#160;</text>
</g>
<!-- VIDEO_SOF_ON&#45;&gt;VIDEO_SOF_ON -->
<g id="edge5" class="edge transition">
<title>VIDEO_SOF_ON&#45;&gt;VIDEO_SOF_ON</title>
<path fill="none" stroke="#000000" d="M140.528,-120.7438C153.241,-120.2981 162.5,-118.7168 162.5,-116 162.5,-114.0898 157.9225,-112.7409 150.7854,-111.9534"/>
<polygon fill="#000000" stroke="#000000" points="150.7424,-108.4425 140.528,-111.2562 150.2676,-115.4264 150.7424,-108.4425"/>
<text text-anchor="start" x="162.5" y="-113" font-family="Helvetica,sans-Serif" font-size="10.00" fill="#000000">iStreamData.ycbcr.valid = hi &#160;&#160;</text>
</g>
<!-- VIDEO_END_OF_LINE -->
<g id="node5" class="node state regular">
<title>VIDEO_END_OF_LINE</title>
<polygon fill="#ffffff" fill-opacity="0.003922" stroke="transparent" stroke-width="2" points="221,-52 73,-52 73,-16 221,-16 221,-52"/>
<text text-anchor="start" x="83.9922" y="-30.2" font-family="Helvetica,sans-Serif" font-size="12.00" fill="#000000">VIDEO_END_OF_LINE</text>
<path fill="none" stroke="#000000" stroke-width="2" d="M85.3333,-17C85.3333,-17 208.6667,-17 208.6667,-17 214.3333,-17 220,-22.6667 220,-28.3333 220,-28.3333 220,-39.6667 220,-39.6667 220,-45.3333 214.3333,-51 208.6667,-51 208.6667,-51 85.3333,-51 85.3333,-51 79.6667,-51 74,-45.3333 74,-39.6667 74,-39.6667 74,-28.3333 74,-28.3333 74,-22.6667 79.6667,-17 85.3333,-17"/>
</g>
<!-- VIDEO_SOF_ON&#45;&gt;VIDEO_END_OF_LINE -->
<g id="edge6" class="edge transition">
<title>VIDEO_SOF_ON&#45;&gt;VIDEO_END_OF_LINE</title>
<path fill="none" stroke="#000000" d="M61.5622,-97.8222C53.736,-88.9666 48.2,-78.2576 54.593,-69 57.6957,-64.5071 64.9689,-60.0845 74.1468,-55.975"/>
<polygon fill="#000000" stroke="#000000" points="75.5436,-59.185 83.4558,-52.1389 72.8765,-52.713 75.5436,-59.185"/>
<text text-anchor="start" x="54" y="-72" font-family="Helvetica,sans-Serif" font-size="10.00" fill="#000000">not (iStreamData.ycbcr.valid = hi) &#160;&#160;</text>
</g>
<!-- VIDEO_END_OF_LINE&#45;&gt;VIDEO_SOF_OFF -->
<g id="edge7" class="edge transition">
<title>VIDEO_END_OF_LINE&#45;&gt;VIDEO_SOF_OFF</title>
<path fill="none" stroke="#000000" d="M221.1514,-41.9224C276.6141,-48.6152 344.3257,-58.7276 353,-69 356.4409,-73.0749 354.969,-76.0435 353,-81 327.7009,-144.6843 250.6301,-174.0104 192.4107,-187.3157"/>
<polygon fill="#000000" stroke="#000000" points="191.538,-183.9235 182.5095,-189.4675 193.0247,-190.7639 191.538,-183.9235"/>
<text text-anchor="start" x="344" y="-113" font-family="Helvetica,sans-Serif" font-size="10.00" fill="#000000">pEofs1 = hi &#160;&#160;</text>
</g>
<!-- VIDEO_END_OF_LINE&#45;&gt;VIDEO_SOF_ON -->
<g id="edge8" class="edge transition">
<title>VIDEO_END_OF_LINE&#45;&gt;VIDEO_SOF_ON</title>
<path fill="none" stroke="#000000" d="M198.238,-52.0885C211.8936,-59.7732 220.7139,-69.6068 212,-81 203.9643,-91.5064 177.5043,-99.5962 150.6226,-105.3382"/>
<polygon fill="#000000" stroke="#000000" points="149.8359,-101.9264 140.7331,-107.3475 151.2298,-108.7862 149.8359,-101.9264"/>
<text text-anchor="start" x="215" y="-72" font-family="Helvetica,sans-Serif" font-size="10.00" fill="#000000">iStreamData.ycbcr.valid = hi &#160;&#160;</text>
</g>
<!-- VIDEO_END_OF_LINE&#45;&gt;VIDEO_END_OF_LINE -->
<g id="edge9" class="edge transition">
<title>VIDEO_END_OF_LINE&#45;&gt;VIDEO_END_OF_LINE</title>
<path fill="none" stroke="#000000" d="M221.0625,-38.5703C234,-37.9609 243,-36.4375 243,-34 243,-32.2861 238.5505,-31.0242 231.4114,-30.2141"/>
<polygon fill="#000000" stroke="#000000" points="231.2985,-26.6956 221.0625,-29.4297 230.7693,-33.6756 231.2985,-26.6956"/>
<text text-anchor="start" x="243" y="-37" font-family="Helvetica,sans-Serif" font-size="10.00" fill="#000000">not (pEofs1 = hi) &#160;&#160;</text>
<text text-anchor="start" x="243" y="-25" font-family="Helvetica,sans-Serif" font-size="10.00" fill="#000000">not (iStreamData.ycbcr.valid = hi) &#160;&#160;</text>
</g>
</g>
</svg>
