<?xml version="1.0" encoding="UTF-8" standalone="no"?>
<!DOCTYPE svg PUBLIC "-//W3C//DTD SVG 1.1//EN"
 "http://www.w3.org/Graphics/SVG/1.1/DTD/svg11.dtd">
<!-- Generated by graphviz version 2.40.1 (20161225.0304)
 -->
<!-- Title: state transitions Pages: 1 -->
<svg width="335pt" height="188pt"
 viewBox="0.00 0.00 335.00 188.00" xmlns="http://www.w3.org/2000/svg" xmlns:xlink="http://www.w3.org/1999/xlink">
<g id="graph0" class="graph" transform="scale(1 1) rotate(0) translate(4 184)">
<title>state transitions</title>
<polygon fill="#ffffff" stroke="transparent" points="-4,4 -4,-184 331,-184 331,4 -4,4"/>
<g id="clust1" class="cluster state regular">
<title>cluster_pixel_locations_address</title>
<path fill="none" stroke="#000000" stroke-width="2" d="M20,-8C20,-8 307,-8 307,-8 313,-8 319,-14 319,-20 319,-20 319,-160 319,-160 319,-166 313,-172 307,-172 307,-172 20,-172 20,-172 14,-172 8,-166 8,-160 8,-160 8,-20 8,-20 8,-14 14,-8 20,-8"/>
<text text-anchor="start" x="99.4848" y="-153.2" font-family="Helvetica,sans-Serif" font-size="12.00" fill="#000000">pixel_locations_address</text>
</g>
<!-- pixel_locations_address -->
<!-- wait_to_go -->
<g id="node2" class="node state regular">
<title>wait_to_go</title>
<polygon fill="#ffffff" fill-opacity="0.003922" stroke="transparent" stroke-width="2" points="108,-134 28,-134 28,-98 108,-98 108,-134"/>
<text text-anchor="start" x="38.99" y="-112.2" font-family="Helvetica,sans-Serif" font-size="12.00" fill="#000000">wait_to_go</text>
<path fill="none" stroke="#000000" stroke-width="2" d="M40.3333,-99C40.3333,-99 95.6667,-99 95.6667,-99 101.3333,-99 107,-104.6667 107,-110.3333 107,-110.3333 107,-121.6667 107,-121.6667 107,-127.3333 101.3333,-133 95.6667,-133 95.6667,-133 40.3333,-133 40.3333,-133 34.6667,-133 29,-127.3333 29,-121.6667 29,-121.6667 29,-110.3333 29,-110.3333 29,-104.6667 34.6667,-99 40.3333,-99"/>
</g>
<!-- wait_to_go&#45;&gt;wait_to_go -->
<g id="edge2" class="edge transition">
<title>wait_to_go&#45;&gt;wait_to_go</title>
<path fill="none" stroke="#000000" d="M108.2514,-120.8676C120.4582,-120.7456 130,-119.123 130,-116 130,-113.8529 125.49,-112.415 118.7046,-111.6864"/>
<polygon fill="#000000" stroke="#000000" points="118.4226,-108.1666 108.2514,-111.1324 118.0521,-115.1568 118.4226,-108.1666"/>
<text text-anchor="start" x="130" y="-113" font-family="Helvetica,sans-Serif" font-size="10.00" fill="#000000">not (rgb_s_axis_tvalid &#160;= hi) &#160;&#160;</text>
</g>
<!-- video_trans_in_progress -->
<g id="node3" class="node state regular">
<title>video_trans_in_progress</title>
<polygon fill="#ffffff" fill-opacity="0.003922" stroke="transparent" stroke-width="2" points="169.5,-52 16.5,-52 16.5,-16 169.5,-16 169.5,-52"/>
<text text-anchor="start" x="27.8174" y="-30.2" font-family="Helvetica,sans-Serif" font-size="12.00" fill="#000000">video_trans_in_progress</text>
<path fill="none" stroke="#000000" stroke-width="2" d="M28.8333,-17C28.8333,-17 157.1667,-17 157.1667,-17 162.8333,-17 168.5,-22.6667 168.5,-28.3333 168.5,-28.3333 168.5,-39.6667 168.5,-39.6667 168.5,-45.3333 162.8333,-51 157.1667,-51 157.1667,-51 28.8333,-51 28.8333,-51 23.1667,-51 17.5,-45.3333 17.5,-39.6667 17.5,-39.6667 17.5,-28.3333 17.5,-28.3333 17.5,-22.6667 23.1667,-17 28.8333,-17"/>
</g>
<!-- wait_to_go&#45;&gt;video_trans_in_progress -->
<g id="edge1" class="edge transition">
<title>wait_to_go&#45;&gt;video_trans_in_progress</title>
<path fill="none" stroke="#000000" d="M63.8386,-97.6952C62.6087,-88.8096 62.318,-78.112 65.472,-69 66.4764,-66.0984 67.8317,-63.2546 69.405,-60.5206"/>
<polygon fill="#000000" stroke="#000000" points="72.3114,-62.4707 75.0095,-52.2252 66.5111,-58.5519 72.3114,-62.4707"/>
<text text-anchor="start" x="65" y="-72" font-family="Helvetica,sans-Serif" font-size="10.00" fill="#000000">rgb_s_axis_tvalid &#160;= hi &#160;&#160;</text>
</g>
<!-- video_trans_in_progress&#45;&gt;wait_to_go -->
<g id="edge3" class="edge transition">
<title>video_trans_in_progress&#45;&gt;wait_to_go</title>
<path fill="none" stroke="#000000" d="M160.9246,-52.2281C174.7665,-59.3987 182.7631,-68.8781 174,-81 166.9648,-90.7318 141.901,-99.2434 117.912,-105.4356"/>
<polygon fill="#000000" stroke="#000000" points="116.975,-102.0618 108.1077,-107.8601 118.6555,-108.8571 116.975,-102.0618"/>
<text text-anchor="start" x="177" y="-72" font-family="Helvetica,sans-Serif" font-size="10.00" fill="#000000">rgb_s_axis_tlast = hi &#160;&#160;</text>
</g>
<!-- video_trans_in_progress&#45;&gt;video_trans_in_progress -->
<g id="edge4" class="edge transition">
<title>video_trans_in_progress&#45;&gt;video_trans_in_progress</title>
<path fill="none" stroke="#000000" d="M169.8156,-38.531C182.6464,-37.8971 191.5,-36.3867 191.5,-34 191.5,-32.3218 187.1229,-31.0769 180.0638,-30.2653"/>
<polygon fill="#000000" stroke="#000000" points="180.0567,-26.7543 169.8156,-29.469 179.5143,-33.7333 180.0567,-26.7543"/>
<text text-anchor="start" x="191.5" y="-31" font-family="Helvetica,sans-Serif" font-size="10.00" fill="#000000">not (rgb_s_axis_tlast = hi) &#160;&#160;</text>
</g>
</g>
</svg>
