<?xml version="1.0" encoding="UTF-8" standalone="no"?>
<!DOCTYPE svg PUBLIC "-//W3C//DTD SVG 1.1//EN"
 "http://www.w3.org/Graphics/SVG/1.1/DTD/svg11.dtd">
<!-- Generated by graphviz version 2.40.1 (20161225.0304)
 -->
<!-- Title: state transitions Pages: 1 -->
<svg width="208pt" height="762pt"
 viewBox="0.00 0.00 208.00 762.00" xmlns="http://www.w3.org/2000/svg" xmlns:xlink="http://www.w3.org/1999/xlink">
<g id="graph0" class="graph" transform="scale(1 1) rotate(0) translate(4 758)">
<title>state transitions</title>
<polygon fill="#ffffff" stroke="transparent" points="-4,4 -4,-758 204,-758 204,4 -4,4"/>
<g id="clust1" class="cluster state regular">
<title>cluster_kCoefStates</title>
<path fill="none" stroke="#000000" stroke-width="2" d="M20,-8C20,-8 180,-8 180,-8 186,-8 192,-14 192,-20 192,-20 192,-734 192,-734 192,-740 186,-746 180,-746 180,-746 20,-746 20,-746 14,-746 8,-740 8,-734 8,-734 8,-20 8,-20 8,-14 14,-8 20,-8"/>
<text text-anchor="start" x="67.8234" y="-727.2" font-family="Helvetica,sans-Serif" font-size="12.00" fill="#000000">kCoefStates</text>
</g>
<!-- kCoefStates -->
<!-- kCoefSetState -->
<g id="node2" class="node state regular">
<title>kCoefSetState</title>
<polygon fill="#ffffff" fill-opacity="0.003922" stroke="transparent" stroke-width="2" points="131.5,-708 32.5,-708 32.5,-672 131.5,-672 131.5,-708"/>
<text text-anchor="start" x="43.8192" y="-686.2" font-family="Helvetica,sans-Serif" font-size="12.00" fill="#000000">kCoefSetState</text>
<path fill="none" stroke="#000000" stroke-width="2" d="M44.8333,-673C44.8333,-673 119.1667,-673 119.1667,-673 124.8333,-673 130.5,-678.6667 130.5,-684.3333 130.5,-684.3333 130.5,-695.6667 130.5,-695.6667 130.5,-701.3333 124.8333,-707 119.1667,-707 119.1667,-707 44.8333,-707 44.8333,-707 39.1667,-707 33.5,-701.3333 33.5,-695.6667 33.5,-695.6667 33.5,-684.3333 33.5,-684.3333 33.5,-678.6667 39.1667,-673 44.8333,-673"/>
</g>
<!-- kCoefYcbcrState -->
<g id="node3" class="node state regular">
<title>kCoefYcbcrState</title>
<polygon fill="#ffffff" fill-opacity="0.003922" stroke="transparent" stroke-width="2" points="138,-626 26,-626 26,-590 138,-590 138,-626"/>
<text text-anchor="start" x="36.9892" y="-604.2" font-family="Helvetica,sans-Serif" font-size="12.00" fill="#000000">kCoefYcbcrState</text>
<path fill="none" stroke="#000000" stroke-width="2" d="M38.3333,-591C38.3333,-591 125.6667,-591 125.6667,-591 131.3333,-591 137,-596.6667 137,-602.3333 137,-602.3333 137,-613.6667 137,-613.6667 137,-619.3333 131.3333,-625 125.6667,-625 125.6667,-625 38.3333,-625 38.3333,-625 32.6667,-625 27,-619.3333 27,-613.6667 27,-613.6667 27,-602.3333 27,-602.3333 27,-596.6667 32.6667,-591 38.3333,-591"/>
</g>
<!-- kCoefSetState&#45;&gt;kCoefYcbcrState -->
<g id="edge1" class="edge transition">
<title>kCoefSetState&#45;&gt;kCoefYcbcrState</title>
<path fill="none" stroke="#000000" d="M82,-671.8015C82,-661.3976 82,-648.1215 82,-636.3768"/>
<polygon fill="#000000" stroke="#000000" points="85.5001,-636.1476 82,-626.1476 78.5001,-636.1476 85.5001,-636.1476"/>
<text text-anchor="middle" x="83.3895" y="-646" font-family="Helvetica,sans-Serif" font-size="10.00" fill="#000000"> </text>
</g>
<!-- kCoefCgainState -->
<g id="node4" class="node state regular">
<title>kCoefCgainState</title>
<polygon fill="#ffffff" fill-opacity="0.003922" stroke="transparent" stroke-width="2" points="128,-544 16,-544 16,-508 128,-508 128,-544"/>
<text text-anchor="start" x="26.6544" y="-522.2" font-family="Helvetica,sans-Serif" font-size="12.00" fill="#000000">kCoefCgainState</text>
<path fill="none" stroke="#000000" stroke-width="2" d="M28.3333,-509C28.3333,-509 115.6667,-509 115.6667,-509 121.3333,-509 127,-514.6667 127,-520.3333 127,-520.3333 127,-531.6667 127,-531.6667 127,-537.3333 121.3333,-543 115.6667,-543 115.6667,-543 28.3333,-543 28.3333,-543 22.6667,-543 17,-537.3333 17,-531.6667 17,-531.6667 17,-520.3333 17,-520.3333 17,-514.6667 22.6667,-509 28.3333,-509"/>
</g>
<!-- kCoefYcbcrState&#45;&gt;kCoefCgainState -->
<g id="edge2" class="edge transition">
<title>kCoefYcbcrState&#45;&gt;kCoefCgainState</title>
<path fill="none" stroke="#000000" d="M79.7807,-589.8015C78.5119,-579.3976 76.8929,-566.1215 75.4606,-554.3768"/>
<polygon fill="#000000" stroke="#000000" points="78.898,-553.6503 74.2131,-544.1476 71.9495,-554.4978 78.898,-553.6503"/>
<text text-anchor="start" x="77" y="-564" font-family="Helvetica,sans-Serif" font-size="10.00" fill="#000000">upCtr = FloatMaxLat &#160;&#160;</text>
</g>
<!-- kCoefSharpState -->
<g id="node5" class="node state regular">
<title>kCoefSharpState</title>
<polygon fill="#ffffff" fill-opacity="0.003922" stroke="transparent" stroke-width="2" points="129.5,-462 16.5,-462 16.5,-426 129.5,-426 129.5,-462"/>
<text text-anchor="start" x="27.8184" y="-440.2" font-family="Helvetica,sans-Serif" font-size="12.00" fill="#000000">kCoefSharpState</text>
<path fill="none" stroke="#000000" stroke-width="2" d="M28.8333,-427C28.8333,-427 117.1667,-427 117.1667,-427 122.8333,-427 128.5,-432.6667 128.5,-438.3333 128.5,-438.3333 128.5,-449.6667 128.5,-449.6667 128.5,-455.3333 122.8333,-461 117.1667,-461 117.1667,-461 28.8333,-461 28.8333,-461 23.1667,-461 17.5,-455.3333 17.5,-449.6667 17.5,-449.6667 17.5,-438.3333 17.5,-438.3333 17.5,-432.6667 23.1667,-427 28.8333,-427"/>
</g>
<!-- kCoefCgainState&#45;&gt;kCoefSharpState -->
<g id="edge3" class="edge transition">
<title>kCoefCgainState&#45;&gt;kCoefSharpState</title>
<path fill="none" stroke="#000000" d="M72.2219,-507.8015C72.3488,-497.3976 72.5107,-484.1215 72.6539,-472.3768"/>
<polygon fill="#000000" stroke="#000000" points="76.1564,-472.1896 72.7787,-462.1476 69.1569,-472.1041 76.1564,-472.1896"/>
<text text-anchor="start" x="72" y="-482" font-family="Helvetica,sans-Serif" font-size="10.00" fill="#000000">upCtr = FloatMaxLat &#160;&#160;</text>
</g>
<!-- kCoefBlureState -->
<g id="node6" class="node state regular">
<title>kCoefBlureState</title>
<polygon fill="#ffffff" fill-opacity="0.003922" stroke="transparent" stroke-width="2" points="125.5,-380 16.5,-380 16.5,-344 125.5,-344 125.5,-380"/>
<text text-anchor="start" x="27.8224" y="-358.2" font-family="Helvetica,sans-Serif" font-size="12.00" fill="#000000">kCoefBlureState</text>
<path fill="none" stroke="#000000" stroke-width="2" d="M28.8333,-345C28.8333,-345 113.1667,-345 113.1667,-345 118.8333,-345 124.5,-350.6667 124.5,-356.3333 124.5,-356.3333 124.5,-367.6667 124.5,-367.6667 124.5,-373.3333 118.8333,-379 113.1667,-379 113.1667,-379 28.8333,-379 28.8333,-379 23.1667,-379 17.5,-373.3333 17.5,-367.6667 17.5,-367.6667 17.5,-356.3333 17.5,-356.3333 17.5,-350.6667 23.1667,-345 28.8333,-345"/>
</g>
<!-- kCoefSharpState&#45;&gt;kCoefBlureState -->
<g id="edge4" class="edge transition">
<title>kCoefSharpState&#45;&gt;kCoefBlureState</title>
<path fill="none" stroke="#000000" d="M72.5561,-425.8015C72.3024,-415.3976 71.9786,-402.1215 71.6921,-390.3768"/>
<polygon fill="#000000" stroke="#000000" points="75.1855,-390.0592 71.4426,-380.1476 68.1876,-390.23 75.1855,-390.0592"/>
<text text-anchor="start" x="72" y="-400" font-family="Helvetica,sans-Serif" font-size="10.00" fill="#000000">upCtr = FloatMaxLat &#160;&#160;</text>
</g>
<!-- kCoefXSobeState -->
<g id="node7" class="node state regular">
<title>kCoefXSobeState</title>
<polygon fill="#ffffff" fill-opacity="0.003922" stroke="transparent" stroke-width="2" points="133.5,-298 16.5,-298 16.5,-262 133.5,-262 133.5,-298"/>
<text text-anchor="start" x="27.8144" y="-276.2" font-family="Helvetica,sans-Serif" font-size="12.00" fill="#000000">kCoefXSobeState</text>
<path fill="none" stroke="#000000" stroke-width="2" d="M28.8333,-263C28.8333,-263 121.1667,-263 121.1667,-263 126.8333,-263 132.5,-268.6667 132.5,-274.3333 132.5,-274.3333 132.5,-285.6667 132.5,-285.6667 132.5,-291.3333 126.8333,-297 121.1667,-297 121.1667,-297 28.8333,-297 28.8333,-297 23.1667,-297 17.5,-291.3333 17.5,-285.6667 17.5,-285.6667 17.5,-274.3333 17.5,-274.3333 17.5,-268.6667 23.1667,-263 28.8333,-263"/>
</g>
<!-- kCoefBlureState&#45;&gt;kCoefXSobeState -->
<g id="edge5" class="edge transition">
<title>kCoefBlureState&#45;&gt;kCoefXSobeState</title>
<path fill="none" stroke="#000000" d="M59.4475,-343.8815C55.3031,-335.2272 52.2218,-324.6704 54.811,-315 55.518,-312.3594 56.4775,-309.7117 57.5964,-307.1203"/>
<polygon fill="#000000" stroke="#000000" points="60.7725,-308.5958 62.1795,-298.0948 54.5311,-305.4264 60.7725,-308.5958"/>
<text text-anchor="start" x="54" y="-318" font-family="Helvetica,sans-Serif" font-size="10.00" fill="#000000">upCtr = FloatMaxLat &#160;&#160;</text>
</g>
<!-- kCoefYSobeState -->
<g id="node8" class="node state regular">
<title>kCoefYSobeState</title>
<polygon fill="#ffffff" fill-opacity="0.003922" stroke="transparent" stroke-width="2" points="133.5,-216 16.5,-216 16.5,-180 133.5,-180 133.5,-216"/>
<text text-anchor="start" x="27.8144" y="-194.2" font-family="Helvetica,sans-Serif" font-size="12.00" fill="#000000">kCoefYSobeState</text>
<path fill="none" stroke="#000000" stroke-width="2" d="M28.8333,-181C28.8333,-181 121.1667,-181 121.1667,-181 126.8333,-181 132.5,-186.6667 132.5,-192.3333 132.5,-192.3333 132.5,-203.6667 132.5,-203.6667 132.5,-209.3333 126.8333,-215 121.1667,-215 121.1667,-215 28.8333,-215 28.8333,-215 23.1667,-215 17.5,-209.3333 17.5,-203.6667 17.5,-203.6667 17.5,-192.3333 17.5,-192.3333 17.5,-186.6667 23.1667,-181 28.8333,-181"/>
</g>
<!-- kCoefXSobeState&#45;&gt;kCoefYSobeState -->
<g id="edge6" class="edge transition">
<title>kCoefXSobeState&#45;&gt;kCoefYSobeState</title>
<path fill="none" stroke="#000000" d="M75,-261.8015C75,-251.3976 75,-238.1215 75,-226.3768"/>
<polygon fill="#000000" stroke="#000000" points="78.5001,-226.1476 75,-216.1476 71.5001,-226.1476 78.5001,-226.1476"/>
<text text-anchor="start" x="75" y="-236" font-family="Helvetica,sans-Serif" font-size="10.00" fill="#000000">upCtr = FloatMaxLat &#160;&#160;</text>
</g>
<!-- kCoefEmbosState -->
<g id="node9" class="node state regular">
<title>kCoefEmbosState</title>
<polygon fill="#ffffff" fill-opacity="0.003922" stroke="transparent" stroke-width="2" points="134,-134 16,-134 16,-98 134,-98 134,-134"/>
<text text-anchor="start" x="26.6538" y="-112.2" font-family="Helvetica,sans-Serif" font-size="12.00" fill="#000000">kCoefEmbosState</text>
<path fill="none" stroke="#000000" stroke-width="2" d="M28.3333,-99C28.3333,-99 121.6667,-99 121.6667,-99 127.3333,-99 133,-104.6667 133,-110.3333 133,-110.3333 133,-121.6667 133,-121.6667 133,-127.3333 127.3333,-133 121.6667,-133 121.6667,-133 28.3333,-133 28.3333,-133 22.6667,-133 17,-127.3333 17,-121.6667 17,-121.6667 17,-110.3333 17,-110.3333 17,-104.6667 22.6667,-99 28.3333,-99"/>
</g>
<!-- kCoefYSobeState&#45;&gt;kCoefEmbosState -->
<g id="edge7" class="edge transition">
<title>kCoefYSobeState&#45;&gt;kCoefEmbosState</title>
<path fill="none" stroke="#000000" d="M75,-179.8015C75,-169.3976 75,-156.1215 75,-144.3768"/>
<polygon fill="#000000" stroke="#000000" points="78.5001,-144.1476 75,-134.1476 71.5001,-144.1476 78.5001,-144.1476"/>
<text text-anchor="start" x="75" y="-154" font-family="Helvetica,sans-Serif" font-size="10.00" fill="#000000">upCtr = FloatMaxLat &#160;&#160;</text>
</g>
<!-- kCoefUpdaterState -->
<g id="node10" class="node state regular">
<title>kCoefUpdaterState</title>
<polygon fill="#ffffff" fill-opacity="0.003922" stroke="transparent" stroke-width="2" points="162,-52 38,-52 38,-16 162,-16 162,-52"/>
<text text-anchor="start" x="48.9856" y="-30.2" font-family="Helvetica,sans-Serif" font-size="12.00" fill="#000000">kCoefUpdaterState</text>
<path fill="none" stroke="#000000" stroke-width="2" d="M50.3333,-17C50.3333,-17 149.6667,-17 149.6667,-17 155.3333,-17 161,-22.6667 161,-28.3333 161,-28.3333 161,-39.6667 161,-39.6667 161,-45.3333 155.3333,-51 149.6667,-51 149.6667,-51 50.3333,-51 50.3333,-51 44.6667,-51 39,-45.3333 39,-39.6667 39,-39.6667 39,-28.3333 39,-28.3333 39,-22.6667 44.6667,-17 50.3333,-17"/>
</g>
<!-- kCoefEmbosState&#45;&gt;kCoefUpdaterState -->
<g id="edge8" class="edge transition">
<title>kCoefEmbosState&#45;&gt;kCoefUpdaterState</title>
<path fill="none" stroke="#000000" d="M73.9856,-97.7535C74.0178,-88.8817 74.8466,-78.1789 77.811,-69 78.7023,-66.24 79.8632,-63.4814 81.1866,-60.7921"/>
<polygon fill="#000000" stroke="#000000" points="84.2749,-62.4412 86.1565,-52.0148 78.1836,-58.9921 84.2749,-62.4412"/>
<text text-anchor="start" x="77" y="-72" font-family="Helvetica,sans-Serif" font-size="10.00" fill="#000000">upCtr = FloatMaxLat &#160;&#160;</text>
</g>
<!-- kCoefUpdaterState&#45;&gt;kCoefYcbcrState -->
<g id="edge9" class="edge transition">
<title>kCoefUpdaterState&#45;&gt;kCoefYcbcrState</title>
<path fill="none" stroke="#000000" d="M154.9,-52.1671C170.3352,-58.9501 183,-66.964 183,-75 183,-224.5 183,-224.5 183,-224.5 183,-310.2778 183,-331.7222 183,-417.5 183,-567 183,-567 183,-567 183,-576.6359 167.0175,-585.0935 147.7682,-591.7854"/>
<polygon fill="#000000" stroke="#000000" points="146.5388,-588.5047 138.1117,-594.9261 148.704,-595.1615 146.5388,-588.5047"/>
<text text-anchor="middle" x="184.3895" y="-318" font-family="Helvetica,sans-Serif" font-size="10.00" fill="#000000"> </text>
</g>
</g>
</svg>
